<svg width="32" height="32" viewBox="0 0 32 32" fill="none" xmlns="http://www.w3.org/2000/svg">
  <rect width="32" height="32" rx="8" fill="#2463eb"/>
  <path d="M11 9C9.89543 9 9 9.89543 9 11V21C9 22.1046 9.89543 23 11 23H21C22.1046 23 23 22.1046 23 21V11C23 9.89543 22.1046 9 21 9H11ZM16 11C18.2091 11 20 12.7909 20 15C20 17.2091 18.2091 19 16 19C15.4182 19 14.8726 18.8756 14.382 18.6531L12.7071 20.328C12.3166 20.7186 11.6834 20.7186 11.2929 20.328C10.9024 19.9375 10.9024 19.3043 11.2929 18.9138L12.9678 17.2389C12.3533 16.6027 12 15.8433 12 15C12 12.7909 13.7909 11 16 11ZM16 13C14.8954 13 14 13.8954 14 15C14 15.3531 14.0911 15.6834 14.2503 15.9698L16.2805 13.9395C16.1958 13.9135 16.1017 13.9 16 13.9C16.1132 13.9 16.2217 13.9168 16.3245 13.9482C16.2238 13.9168 16.1153 13.9 16 13.9ZM16.0302 14.0302L17.9698 15.9698C17.9898 15.6698 18 15.3364 18 15C18 13.8954 17.1046 13 16 13C15.6636 13 15.3302 13.0102 15.0302 13.0302L16.0302 14.0302Z" fill="white"/>
</svg>
